<?xml version="1.0" encoding="UTF-8" standalone="no"?>
<svg
   xmlns:dc="http://purl.org/dc/elements/1.1/"
   xmlns:cc="http://creativecommons.org/ns#"
   xmlns:rdf="http://www.w3.org/1999/02/22-rdf-syntax-ns#"
   xmlns:svg="http://www.w3.org/2000/svg"
   xmlns="http://www.w3.org/2000/svg"
   xmlns:sodipodi="http://sodipodi.sourceforge.net/DTD/sodipodi-0.dtd"
   xmlns:inkscape="http://www.inkscape.org/namespaces/inkscape"
   width="1792"
   height="1792"
   viewBox="-896 -896 3584 3584"
   id="svg2"
   version="1.1"
   inkscape:version="0.91 r13725"
   sodipodi:docname="phishin.svg">
  <metadata
     id="metadata10">
    <rdf:RDF>
      <cc:Work
         rdf:about="">
        <dc:format>image/svg+xml</dc:format>
        <dc:type
           rdf:resource="http://purl.org/dc/dcmitype/StillImage" />
        <dc:title></dc:title>
      </cc:Work>
    </rdf:RDF>
  </metadata>
  <defs
     id="defs8" />
  <sodipodi:namedview
     pagecolor="#ffffff"
     bordercolor="#666666"
     borderopacity="1"
     objecttolerance="10"
     gridtolerance="10"
     guidetolerance="10"
     inkscape:pageopacity="0"
     inkscape:pageshadow="2"
     inkscape:window-width="900"
     inkscape:window-height="937"
     id="namedview6"
     showgrid="false"
     inkscape:zoom="0.55792034"
     inkscape:cx="873.99999"
     inkscape:cy="848.7"
     inkscape:window-x="69"
     inkscape:window-y="34"
     inkscape:window-maximized="0"
     inkscape:current-layer="svg2" />
  <g
     id="g4558"
     transform="translate(-36.8,-1324.8)"
     style="stroke:none;fill:#ffffff;fill-opacity:1">
    <path
       sodipodi:nodetypes="ccsscssssssssssssssssscsssssssssssssssssscssssssssssssssssscccccsssscssccscccscssssssssssssscscssssscsscsssssssscssssssssssssssssssssssssssssssssccssscssssssss"
       inkscape:connector-curvature="0"
       id="path3467"
       d="m 1263.2121,2496.2099 c -16.4205,-10.8276 -36.3531,-28.5728 -44.2949,-39.4337 -13.5585,-18.5426 -15.9997,-18.6544 -40.0162,-1.8326 -91.3806,64.0055 -148.069,-16.1732 -90.9862,-128.6887 14.8185,-29.2085 26.963,-54.5954 26.9878,-56.4154 0.022,-1.82 -14.7461,5.4283 -32.8244,16.1075 -60.7158,35.8656 -86.01096,71.5054 -93.07334,131.1359 -7.95179,67.1403 -89.95936,77.6243 -89.95936,11.5006 0,-5.691 -14.55981,0.4173 -32.35512,13.5739 -49.34472,36.4822 -154.37975,41.5827 -188.87931,9.172 -25.76743,-24.2072 -25.76743,-24.2072 -62.76864,-1.3392 -48.26292,29.8281 -98.4997,29.8596 -119.36177,0.075 -15.96497,-22.7932 -15.96497,-22.7932 -40.43058,0 -87.21493,81.253 -162.31463,-32.6454 -91.79127,-139.2134 34.0114,-51.3947 25.21854,-54.2224 -34.37361,-11.054 -52.63557,38.129 -65.0378,58.9294 -73.96319,124.0472 -8.02457,58.5457 -44.14545,69.0306 -75.09361,21.7977 -57.31869,-87.4793 162.12939,-458.4252 241.72227,-408.5972 51.4152,32.1877 9.8847,124.4065 -77.12964,171.2668 -20.72335,11.1602 -42.79879,31.5285 -49.05652,45.2627 -14.23972,31.2527 -11.08958,31.1368 36.78907,-1.3546 104.32689,-70.7981 146.30344,-60.3658 118.02832,29.3332 -22.2334,70.5324 -16.13372,101.0108 16.69884,83.4393 11.96272,-6.4019 21.75039,-15.7734 21.75039,-20.8253 0,-16.7801 86.41666,-138.8982 102.71756,-145.1535 39.32461,-15.0903 47.09731,4.0903 20.50379,50.597 -27.84653,48.698 -34.37302,109.9314 -12.57142,117.9488 18.94633,6.9675 40.47257,-2.0859 40.5302,-17.0458 0.20036,-52.0147 188.59455,-198.04 225.81929,-175.0338 17.76519,10.9795 13.83005,38.2956 -5.51685,38.2956 -13.73602,0 -15.88454,8.0425 -10.81458,40.4817 3.47983,22.2649 7.32862,58.6984 8.55279,80.9634 3.53529,64.2951 24.29462,48.214 76.64564,-59.3732 53.10851,-109.1439 165.90755,-245.5888 203.02835,-245.5888 72.4276,0 40.7456,108.3523 -49.7658,170.1989 -54.0875,36.9582 -93.51774,91.3445 -48.9207,67.477 11.4017,-6.102 23.4871,-15.5549 26.8562,-21.0063 37.8684,-61.2723 146.0344,-43.0438 120.6747,20.3365 -22.531,56.3105 -22.9993,97.6424 -1.1064,97.6424 9.0974,0 20.0733,-9.5497 24.391,-21.2216 27.0357,-73.0843 135.1913,-97.1817 186.0849,-41.4603 17.318,18.9608 33.1253,32.3197 35.1272,29.6866 2.0021,-2.6332 19.7389,-30.4435 39.4153,-61.8007 58.6301,-93.4359 123.6167,-105.9619 77.1448,-14.8695 -36.2866,71.1276 -26.6827,128.1353 18.9143,112.2741 7.9152,-2.7533 23.2242,-25.6123 34.0199,-50.7977 25.1846,-58.7534 82.8842,-124.5327 109.2361,-124.5327 23.6825,0 23.8341,0.5463 10.1481,36.5436 -10.3239,27.1539 -10.3239,27.1539 39.8964,-4.6948 102.3162,-64.8871 123.7322,-45.8212 88.4437,78.7381 -21.696,76.5812 -0.3249,92.7113 50.1441,37.8459 58.6539,-63.764 69.1782,-34.9824 16.9902,46.4646 -105.1218,164.0577 -244.3388,88.9407 -149.534,-80.6836 33.5679,-60.0595 21.2663,-63.0043 -36.8266,-8.8158 -39.668,37.0018 -44.0995,46.6351 -49.6594,107.9511 -6.7779,74.7477 -33.9413,91.2594 -75.9506,46.1676 -19.5574,-20.9924 -19.9577,-20.9929 -51.6973,-0.071 -35.0243,23.087 -91.103,27.9619 -109.5424,9.5225 -8.4097,-8.4097 -15.8553,-5.8529 -26.448,9.082 -33.9208,47.8256 -101.8667,59.3948 -152.5495,25.9746 z m 124.7732,-26.6056 c 20.0593,-19.0181 -1.6044,-0.913 27.9308,-20.3947 m 0,0 c 19.4211,-12.0029 12.0028,-91.8305 -10.1912,-111.9158 -11.4946,-10.4024 -20.8992,-25.4472 -20.8992,-33.433 0,-21.0797 -117.1847,-42.1118 -118.7462,1.6731 -0.4125,11.5662 -20.1307,16.1927 -28.3096,16.1927 -8.1813,0 -14.9372,10.9264 -15.0182,24.289 -0.086,13.3589 -3.0767,35.219 -6.6567,48.578 -3.9055,14.5735 -6.5997,43.2361 0.6328,43.2361 6.6298,0 16.4536,-15.9912 14.9692,-22.6707 -1.4843,-6.6795 2.6132,-22.7724 9.9632,-25.4697 9.6188,-3.5301 4.4665,15.3091 -4.1403,45.4154 -9.2192,32.2485 1.1183,45.7647 24.2584,42.078 8.3029,3.1862 15.0963,1.0877 15.0963,-4.6633 -1.5638,-11.89 -26.7813,-1.7103 -18.1334,-11.1958 9.8337,-9.8337 39.9089,2.5015 32.881,13.8727 -5.013,8.1112 -22.4941,25.2803 24.2371,29.8819 0.6607,0.091 10.2159,-10.2232 9.8863,-26.1215 -1.0124,-48.836 -29.5563,-41.7499 -39.2751,-47.2665 -12.1135,-6.8758 -12.8267,-12.4549 -12.8267,-32.5866 0,-16.6828 4.8018,-12.4048 2.2075,-23.7965 -6.7221,-29.5172 -36.791,-7.4441 -34.438,-14.2823 3.9325,-11.4285 -6.5508,-14.19 6.6294,-13.0069 20.0639,1.801 18.363,17.4742 37.7829,7.081 25.8383,-13.8283 41.8993,-47.2802 20.8731,-43.075 -7.4216,1.4843 -24.4266,18.8563 -24.4266,10.2529 0,-10.8127 14.4537,-17.265 46.9317,-18.5668 12.8149,-0.5137 26.4749,-1.6245 14.6515,12.6217 -7.4673,8.9977 -15.0113,-3.684 -24.4504,-6.9161 -9.4391,-3.2321 18.0608,65.5938 27.6379,39.1896 7.8898,-21.7523 34.0046,22.0509 35.9837,16.1804 1.9792,-5.8705 8.8611,-10.6737 15.2931,-10.6737 6.4321,0 -2.0277,17.2313 -5.9345,21.138 -3.9066,3.9067 8.8336,-0.4126 15.4463,7.5553 9.1994,11.0846 -33.4039,-10.7755 -46.5142,-10.7755 -9.4241,0 16.2615,34.2766 9.9064,46.1512 -6.3551,11.8746 -18.6239,27.098 -28.154,22.2919 -28.218,-14.2305 -18.6913,55.0494 -3.1189,59.544 49.0473,14.1562 41.9333,-20.7268 48.0346,-30.4125 m -35.5449,-7.5412 c 0,-5.9373 5.1445,-10.7951 11.4322,-10.7951 6.2878,0 8.4299,4.8578 4.7605,10.7951 -3.6695,5.9373 -4.3187,0.9497 -6.937,0.9497 -2.6182,0 -9.2557,4.9872 -9.2557,-0.9497 z m -91.7585,-118.7463 c -3.6695,-5.9373 -2.9308,-12.9003 3.3569,-12.9003 6.2878,0 12.8358,6.963 12.8358,12.9003 0,5.9373 -4.2474,7.2864 -6.8656,7.2864 -2.6183,0 -5.6576,-1.3491 -9.3271,-7.2864 z m 114.8654,-14.2696 c 4.4844,0.4487 8.6478,-0.5894 10.4509,3.6177 2.2529,5.2568 -5.8711,10.2095 -11.9676,10.6519 -5.3373,0.3873 -12.6612,-15.6883 1.5167,-14.2696 z m -34.0161,84.5753 c 17.9371,-21.6129 5.989,-48.7155 -21.4762,-48.7155 -12.2472,0 -25.0877,7.3486 -28.5343,16.3302 -6.203,16.165 12.8091,48.4405 28.5343,48.4405 4.4834,0 14.1476,-7.2248 21.4762,-16.0552 z M 791.65186,2298.0659 c 19.48327,-72.3553 10.69235,-82.7132 -35.65953,-42.0158 -45.18636,39.6742 -48.02515,50.0772 -23.29853,85.3794 22.12483,31.5876 42.88791,16.3163 58.95806,-43.3636 z M 385.72392,2135.7241 c 9.21046,-13.1497 16.7463,-30.5193 16.7463,-38.5989 0,-26.8882 -26.66305,-6.4911 -52.7217,40.3318 -28.79163,51.7335 -0.52011,50.3717 35.9754,-1.7329 z m 726.18188,2.4855 c 14.965,-18.4269 18.2777,-53.9755 5.0299,-53.9755 -8.919,0 -55.9634,77.2128 -55.9634,91.8513 0,9.2846 31.8958,-14.4341 50.9335,-37.8758 z m -1290.23833,339.4098 c -46.43672,-19.5252 62.35963,-314.4815 152.07071,-412.2768 44.107749,-48.0825 58.86316,-34.0247 29.0516406,27.678 -12.018266,24.8749 -34.1761346,92.5821 -49.2397246,150.4605 -63.328956,243.3267 -72.271506,259.2029 -131.882626,234.1383 z m 157.094498,-113.1326 c -47.654937,-28.8776 -20.249822,-114.0234 37.103899,-115.2791 106.349443,-2.3285 177.250783,-138.4955 108.113253,-207.633 -84.495906,-84.4959 -291.57815,-14.315 -253.71869,85.9862 9.86613,26.1383 8.44416,33.9608 -9.05166,49.7943 -27.89868,25.2479 -51.84801,2.398 -59.82558,-57.0792 -21.56785,-160.8003 328.87268,-214.2973 401.48012,-61.2885 60.26647,127.0021 -117.886049,369.8631 -224.101342,305.4993 z M 1931.7546,2217.3503 c -3.9711,-3.9712 0.9878,-16.2905 11.0206,-27.3763 10.0325,-11.0858 20.9732,-40.1121 24.3126,-64.5029 7.4006,-54.0528 34.8318,-76.4765 61.2443,-50.064 23.6129,23.613 13.3201,62.4598 -29.4591,111.1826 -32.2558,36.7373 -52.0636,45.8153 -67.1184,30.7606 z M 607.18998,2115.8955 c -9.31877,-17.4123 -8.07361,-28.2183 5.66817,-49.1909 24.41932,-37.2686 95.35367,-33.8036 100.83909,4.9258 7.97199,56.2856 -80.4146,93.0197 -106.50726,44.2651 z m 938.70762,5.0914 c -26.21,-31.5811 8.7377,-74.5357 60.6419,-74.5357 38.2468,0 43.1168,3.027 46.0816,28.6427 5.8529,50.5697 -74.2535,85.0169 -106.7235,45.893 z"
       style="fill:#ffffff;stroke:none;fill-opacity:1" />
    <path
       sodipodi:nodetypes="ccsc"
       inkscape:connector-curvature="0"
       id="path3481"
       d="m 1412.0949,2394.966 c 0,0 10.1952,1.9733 7.2354,5.5911 -2.96,3.6176 -9.049,2.5369 -9.5376,1.3154 -1.9733,-4.9331 2.3022,-6.9065 2.3022,-6.9065 z"
       style="fill:#ffffff;fill-opacity:1;fill-rule:evenodd;stroke:none;stroke-width:2px;stroke-linecap:butt;stroke-linejoin:miter;stroke-opacity:1" />
    <path
       sodipodi:nodetypes="ccsc"
       inkscape:connector-curvature="0"
       id="path3481-3"
       d="m 1400.4101,2423.822 c 0,0 2.631,3.9466 -0.3288,7.5644 -2.96,3.6176 -4.4447,2.5369 -4.9333,1.3154 -1.9733,-4.9331 5.2621,-8.8798 5.2621,-8.8798 z"
       style="fill:#ffffff;fill-opacity:1;fill-rule:evenodd;stroke:none;stroke-width:2px;stroke-linecap:butt;stroke-linejoin:miter;stroke-opacity:1" />
    <path
       sodipodi:nodetypes="ccsc"
       inkscape:connector-curvature="0"
       id="path3481-3-6"
       d="m 1394.9535,2413.2977 c 0,0 6.5776,1.6444 3.6178,5.2622 -2.96,3.6176 -8.3913,1.2214 -8.8799,-1e-4 -1.9733,-4.9331 5.2621,-5.2621 5.2621,-5.2621 z"
       style="fill:#ffffff;fill-opacity:1;fill-rule:evenodd;stroke:none;stroke-width:2px;stroke-linecap:butt;stroke-linejoin:miter;stroke-opacity:1" />
    <path
       sodipodi:nodetypes="ccsc"
       inkscape:connector-curvature="0"
       id="path3481-3-7"
       d="m 1310.1712,2482.9185 c 0,0 2.631,3.9466 -0.3288,7.5644 -2.96,3.6176 -10.5033,2.5836 -10.8532,1.3154 -1.9666,-7.1279 2.5877,-6.015 11.182,-8.8798 z"
       style="fill:#ffffff;fill-opacity:1;fill-rule:evenodd;stroke:none;stroke-width:2px;stroke-linecap:butt;stroke-linejoin:miter;stroke-opacity:1" />
    <path
       sodipodi:nodetypes="ccsc"
       inkscape:connector-curvature="0"
       id="path3481-3-7-5"
       d="m 1303.9225,2469.7632 c 0,0 7.2353,2.631 4.2755,6.2488 -2.96,3.6176 -2.0823,2.9665 -2.96,3.9465 0,0 -9.9098,-7.3305 -1.3155,-10.1953 z"
       style="fill:#ffffff;fill-opacity:1;fill-rule:evenodd;stroke:none;stroke-width:2px;stroke-linecap:butt;stroke-linejoin:miter;stroke-opacity:1" />
    <path
       sodipodi:nodetypes="ccsc"
       inkscape:connector-curvature="0"
       id="path3481-3-7-5-3"
       d="m 1226.8516,2391.8417 c 0,0 7.2353,2.631 4.2755,6.2488 -2.96,3.6176 -2.0823,2.9665 -2.96,3.9465 0,0 -9.9098,-7.3305 -1.3155,-10.1953 z"
       style="fill:#ffffff;fill-opacity:1;fill-rule:evenodd;stroke:none;stroke-width:2px;stroke-linecap:butt;stroke-linejoin:miter;stroke-opacity:1" />
    <path
       sodipodi:nodetypes="ccsc"
       inkscape:connector-curvature="0"
       id="path3481-3-7-5-3-5"
       d="m 1250.2023,2455.3159 c 0,0 7.2353,1.952 4.2755,4.6362 -2.96,2.684 -2.0823,2.2009 -2.96,2.928 0,0 -9.9098,-5.4387 -1.3155,-7.5642 z"
       style="fill:#ffffff;fill-opacity:1;fill-rule:evenodd;stroke:none;stroke-width:2px;stroke-linecap:butt;stroke-linejoin:miter;stroke-opacity:1" />
    <path
       sodipodi:nodetypes="ccsc"
       inkscape:connector-curvature="0"
       id="path3481-3-7-5-3-6"
       d="m 1259.0096,2441.174 c 0,0 11.1579,3.31 6.5935,7.8614 -4.5648,4.5512 -4.8556,-2.5167 -6.2092,-1.2838 0,0 -6.0736,-3.6313 -0.3843,-6.5776 z"
       style="fill:#ffffff;fill-opacity:1;fill-rule:evenodd;stroke:none;stroke-width:2px;stroke-linecap:butt;stroke-linejoin:miter;stroke-opacity:1" />
    <path
       sodipodi:nodetypes="ccsc"
       inkscape:connector-curvature="0"
       id="path3481-3-2"
       d="m 1375.3372,2462.6301 c 0,0 3.1491,4.3345 -0.3935,8.3079 -3.5428,3.9732 -5.3199,2.7863 -5.9047,1.4447 -2.3619,-5.418 6.2982,-9.7526 6.2982,-9.7526 z"
       style="fill:#ffffff;fill-opacity:1;fill-rule:evenodd;stroke:none;stroke-width:2px;stroke-linecap:butt;stroke-linejoin:miter;stroke-opacity:1" />
    <path
       sodipodi:nodetypes="ccsc"
       inkscape:connector-curvature="0"
       id="path3481-9"
       d="m 1258.4437,2368.5698 c 0,0 7.0311,1.9733 4.9899,5.5911 -2.0414,3.6176 -6.2406,2.5369 -6.5776,1.3154 -1.3609,-4.9331 1.5877,-6.9065 1.5877,-6.9065 z"
       style="fill:#ffffff;fill-opacity:1;fill-rule:evenodd;stroke:none;stroke-width:2px;stroke-linecap:butt;stroke-linejoin:miter;stroke-opacity:1" />
    <path
       sodipodi:nodetypes="ccsc"
       inkscape:connector-curvature="0"
       id="path3481-9-1"
       d="m 1333.1,2288.3225 c 0,0 7.0311,1.9733 4.9899,5.5911 -2.0414,3.6176 -6.2406,2.5369 -6.5776,1.3154 -1.3609,-4.9331 1.5877,-6.9065 1.5877,-6.9065 z"
       style="fill:#ffffff;fill-opacity:1;fill-rule:evenodd;stroke:none;stroke-width:2px;stroke-linecap:butt;stroke-linejoin:miter;stroke-opacity:1" />
    <path
       sodipodi:nodetypes="ccsc"
       inkscape:connector-curvature="0"
       id="path3481-3-2-2"
       d="m 1252.4945,2368.7342 c 0,0 2.7605,2.5242 -0.345,4.8381 -3.1056,2.3138 -4.6635,1.6226 -5.1761,0.8413 -2.0705,-3.1551 5.5211,-5.6794 5.5211,-5.6794 z"
       style="fill:#ffffff;fill-opacity:1;fill-rule:evenodd;stroke:none;stroke-width:2px;stroke-linecap:butt;stroke-linejoin:miter;stroke-opacity:1" />
    <path
       sodipodi:nodetypes="ccsc"
       inkscape:connector-curvature="0"
       id="path3481-7"
       d="m 1317.1169,2284.0471 c 0,0 5.1326,2.8585 3.6425,8.0992 -1.4901,5.2405 -4.5555,3.675 -4.8015,1.9055 -0.9934,-7.146 1.159,-10.0047 1.159,-10.0047 z"
       style="fill:#ffffff;fill-opacity:1;fill-rule:evenodd;stroke:none;stroke-width:2px;stroke-linecap:butt;stroke-linejoin:miter;stroke-opacity:1" />
    <path
       sodipodi:nodetypes="ccsc"
       inkscape:connector-curvature="0"
       id="path3481-3-2-0"
       d="m 1289.4989,2291.447 c 0,0 3.1491,3.3 -0.3935,6.3251 -3.5428,3.025 -5.3199,2.1214 -5.9047,1.0999 -2.3619,-4.1249 6.2982,-7.425 6.2982,-7.425 z"
       style="fill:#ffffff;fill-opacity:1;fill-rule:evenodd;stroke:none;stroke-width:2px;stroke-linecap:butt;stroke-linejoin:miter;stroke-opacity:1" />
    <path
       sodipodi:nodetypes="ccsc"
       inkscape:connector-curvature="0"
       id="path3481-3-7-5-3-6-9"
       d="m 1252.2604,2378.0937 c 0,0 11.1579,3.31 6.5935,7.8614 -4.5648,4.5512 -4.8556,-2.5167 -6.2092,-1.2838 0,0 -6.0736,-3.6313 -0.3843,-6.5776 z"
       style="fill:#ffffff;fill-opacity:1;fill-rule:evenodd;stroke:none;stroke-width:2px;stroke-linecap:butt;stroke-linejoin:miter;stroke-opacity:1" />
    <path
       sodipodi:nodetypes="ccsc"
       inkscape:connector-curvature="0"
       id="path3481-3-7-5-3-6-9-3"
       d="m 1248.431,2326.788 c 0,0 7.1704,3.8886 4.2372,9.2355 -2.9335,5.3468 -3.1204,-2.9566 -3.9902,-1.5082 0,0 -3.903,-4.266 -0.247,-7.7273 z"
       style="fill:#ffffff;fill-opacity:1;fill-rule:evenodd;stroke:none;stroke-width:2px;stroke-linecap:butt;stroke-linejoin:miter;stroke-opacity:1" />
    <path
       sodipodi:nodetypes="ccsc"
       inkscape:connector-curvature="0"
       id="path3481-3-6-6"
       d="m 1353.4098,2474.6128 c 0,0 8.4522,1.2718 4.6488,4.0698 -3.8036,2.7978 -10.7828,0.9446 -11.4106,-1e-4 -2.5357,-3.8153 6.7618,-4.0697 6.7618,-4.0697 z"
       style="fill:#ffffff;fill-opacity:1;fill-rule:evenodd;stroke:none;stroke-width:2px;stroke-linecap:butt;stroke-linejoin:miter;stroke-opacity:1" />
    <path
       sodipodi:nodetypes="ccsc"
       inkscape:connector-curvature="0"
       id="path3481-3-7-5-3-6-0"
       d="m 1370.5298,2316.5553 c 0,0 11.1579,3.31 6.5935,7.8614 -4.5648,4.5512 -4.8556,-2.5167 -6.2092,-1.2838 0,0 -6.0736,-3.6313 -0.3843,-6.5776 z"
       style="fill:#ffffff;fill-opacity:1;fill-rule:evenodd;stroke:none;stroke-width:2px;stroke-linecap:butt;stroke-linejoin:miter;stroke-opacity:1" />
    <path
       sodipodi:nodetypes="ccsc"
       inkscape:connector-curvature="0"
       id="path3481-3-7-6"
       d="m 1252.8025,2445.9322 c 0,0 2.631,2.5104 -0.3288,4.8117 -2.96,2.3012 -10.5033,1.6435 -10.8532,0.8368 -1.9666,-4.5341 2.5877,-3.8262 11.182,-5.6485 z"
       style="fill:#ffffff;fill-opacity:1;fill-rule:evenodd;stroke:none;stroke-width:2px;stroke-linecap:butt;stroke-linejoin:miter;stroke-opacity:1" />
    <path
       sodipodi:nodetypes="ccsc"
       inkscape:connector-curvature="0"
       id="path3481-3-7-5-3-2"
       d="m 1264.8148,2408.8631 c 0,0 5.8498,2.3162 3.4568,5.5012 -2.3932,3.1848 -1.6836,2.6116 -2.3932,3.4743 0,0 -8.0121,-6.4534 -1.0636,-8.9755 z"
       style="fill:#ffffff;fill-opacity:1;fill-rule:evenodd;stroke:none;stroke-width:2px;stroke-linecap:butt;stroke-linejoin:miter;stroke-opacity:1" />
  </g>
</svg>
