<?xml version="1.0" encoding="UTF-8" standalone="no"?>
<svg
   xmlns:dc="http://purl.org/dc/elements/1.1/"
   xmlns:cc="http://creativecommons.org/ns#"
   xmlns:rdf="http://www.w3.org/1999/02/22-rdf-syntax-ns#"
   xmlns:svg="http://www.w3.org/2000/svg"
   xmlns="http://www.w3.org/2000/svg"
   xmlns:sodipodi="http://sodipodi.sourceforge.net/DTD/sodipodi-0.dtd"
   xmlns:inkscape="http://www.inkscape.org/namespaces/inkscape"
   width="1792"
   height="1792"
   viewBox="-896 -896 3584 3584"
   id="svg2"
   version="1.1"
   inkscape:version="0.91 r13725"
   sodipodi:docname="phishin.svg">
  <metadata
     id="metadata10">
    <rdf:RDF>
      <cc:Work
         rdf:about="">
        <dc:format>image/svg+xml</dc:format>
        <dc:type
           rdf:resource="http://purl.org/dc/dcmitype/StillImage" />
        <dc:title />
      </cc:Work>
    </rdf:RDF>
  </metadata>
  <defs
     id="defs8" />
  <sodipodi:namedview
     pagecolor="#ffffff"
     bordercolor="#666666"
     borderopacity="1"
     objecttolerance="10"
     gridtolerance="10"
     guidetolerance="10"
     inkscape:pageopacity="0"
     inkscape:pageshadow="2"
     inkscape:window-width="1034"
     inkscape:window-height="1001"
     id="namedview6"
     showgrid="false"
     inkscape:zoom="0.5"
     inkscape:cx="1074.5262"
     inkscape:cy="818.21717"
     inkscape:window-x="201"
     inkscape:window-y="24"
     inkscape:window-maximized="0"
     inkscape:current-layer="svg2" />
  <path
     style="fill:#ffffff"
     d="m 1231.1486,1165.6983 c -14.4081,-12.1583 -16.6812,-34.7938 5.4527,-63.0373 27.9299,-35.6393 79.8111,-39.2737 97.1331,-6.9075 16.0714,30.0299 -2.7894,53.748 -39.9924,75.0177 -18.2225,10.4182 -44.3441,10.3268 -62.5934,-5.0729 z m -1467.70016,-18.2634 c -17.01684,-12.4687 -12.61849,-27.0824 52.85836,-175.62419 67.47476,-153.07427 126.153713,-256.8679 145.218366,-256.8679 19.756817,0 20.028118,14.76032 0.868248,47.23402 -11.20666,18.99388 -40.470924,107.58638 -65.031704,196.87229 -24.56084,89.28578 -49.43032,171.25878 -55.26557,182.16208 -12.24355,22.8772 -51.6623,25.9966 -78.6477,6.2237 z m 1982.37586,-1.294 c -38.8804,-19.2833 -40.5559,-87.206 -3.9337,-159.47621 15.6855,-30.95375 26.6152,-58.1833 24.2882,-60.5102 -7.7105,-7.7107 -76.6833,48.96058 -96.8963,79.61451 -10.9318,16.5786 -19.9083,48.1029 -19.9476,70.0541 -0.1382,77.1329 -25.4822,95.1393 -72.1712,51.2772 -24.5407,-23.0548 -24.5407,-23.0548 -53.8501,0 -34.8563,27.4179 -93.9697,30.1669 -114.584,5.3284 -36.1694,-43.5815 9.8793,-179.53601 81.1112,-239.47376 44.8406,-37.73081 54.9516,-18.33083 23.1676,44.45098 -30.9025,61.0401 -33.4815,84.98028 -11.1514,103.51268 26.1,21.6611 56.5131,2.7751 75.4714,-46.86682 21.0069,-55.00565 83.2422,-126.78469 109.9273,-126.78469 13.5775,0 16.5786,5.24316 10.8986,19.04056 -23.9025,58.06057 -21.5825,63.54268 14.1631,33.46491 18.8736,-15.88119 52.0273,-34.72019 73.6749,-41.86456 55.734,-18.39384 66.2502,-3.81361 44.1118,61.1591 -36.7667,107.9041 -8.0324,151.1747 52.5655,79.158 35.293,-41.94307 46.4672,-34.7892 21.7985,13.9555 -49.6332,98.0738 -107.2398,139.455 -158.6438,113.9603 z m -1595.45026,-8.6253 c -7.41032,-7.4104 -13.47331,-38.9199 -13.47331,-70.0213 0,-43.5037 8.97765,-74.00044 38.91891,-132.20619 45.74491,-88.92799 119.28674,-181.97499 168.41164,-213.07868 33.98041,-21.51482 35.27295,-21.55943 49.78164,-1.71765 8.19249,11.20395 14.89544,27.42528 14.89544,36.04746 0,31.47557 -46.18659,89.13904 -98.60123,123.10253 -29.54767,19.14629 -53.72304,38.48247 -53.72304,42.96941 0,4.48685 -2.95106,15.84836 -6.55791,25.24763 -4.30208,11.21108 15.12675,4.03179 56.48154,-20.87076 34.67167,-20.87818 76.79184,-37.96036 93.60034,-37.96036 16.80849,0 30.56091,1.68155 30.56091,3.73686 0,2.05521 -9.58059,31.58327 -21.29019,65.61786 -21.25641,61.78279 -20.08251,93.99799 3.41372,93.68319 21.98774,-0.2945 35.25496,-14.9404 67.19293,-74.17541 34.72755,-64.40877 89.54294,-117.55979 105.14768,-101.95502 5.93824,5.93825 1.38483,24.67073 -11.38912,46.85414 -31.36521,54.46939 -38.7358,101.31319 -18.57379,118.04619 20.16966,16.7393 47.45125,8.0352 57.28669,-18.2774 13.67289,-36.57861 84.89735,-113.65629 129.25669,-139.87901 50.75312,-30.00231 102.40698,-35.03214 102.40698,-9.97182 0,8.97626 -7.7619,16.32042 -17.24877,16.32042 -14.92269,0 -16.21151,11.3712 -9.55716,84.32235 4.23039,46.37726 9.06744,85.88566 10.7491,87.79626 7.05599,8.0171 48.69774,-26.278 48.69774,-40.1061 0,-49.90777 133.45453,-250.79079 196.37463,-295.59387 40.682,-28.96807 64.7527,-14.69198 64.7527,38.40434 0,35.21361 -16.6077,54.44822 -123.8109,143.39431 -15.68236,13.01151 -28.51342,31.27113 -28.51342,40.57694 0,12.84012 11.17799,9.04055 46.36202,-15.75944 53.779,-37.90695 127.723,-55.31917 127.723,-30.07609 0,8.6932 -7.8344,38.79837 -17.4097,66.90044 -29.3266,86.06887 3.6055,112.07147 62.3258,49.21117 17.5373,-18.77382 34.0493,-31.97095 36.6932,-29.32706 10.3767,10.3765 -42.1703,97.43226 -77.5721,128.51546 -39.2079,34.425 -87.4201,43.0564 -110.6642,19.8122 -21.9489,-21.9488 -14.967,-97.3867 13.6447,-147.42804 31.66,-55.37317 18.8376,-58.54816 -43.942,-10.88035 -49.77095,37.79049 -69.80159,69.68539 -69.80159,111.14519 0,62.7096 -39.57352,82.0845 -70.68271,34.6057 -16.78287,-25.6138 -16.78287,-25.6138 -67.37662,0 -69.57579,35.2239 -136.94093,34.4907 -173.31773,-1.8861 -27.50001,-27.5 -27.50001,-27.5 -60.18191,0 -41.76907,35.1463 -99.14686,37.1994 -122.14127,4.3702 -16.20073,-23.1298 -16.20073,-23.1298 -45.60548,0 -32.4476,25.5233 -80.21626,30.3134 -100.45622,10.0734 -21.41967,-21.4197 -14.87572,-89.0838 13.83829,-143.08747 29.59391,-55.6585 28.85678,-57.53579 -13.83459,-35.23281 -54.93167,28.69768 -90.13655,76.33798 -98.18283,132.86418 -5.93415,41.688 -12.2288,53.7453 -29.34492,56.2094 -11.98465,1.7253 -27.85326,-2.926 -35.26358,-10.3363 z M 750.71811,1005.991 c 19.41447,-48.04089 29.57884,-106.08296 18.57731,-106.08296 -4.9496,0 -25.63577,11.18447 -45.96928,24.85449 -39.93838,26.85015 -50.75954,58.89788 -31.83023,94.26757 17.56027,32.8116 42.95209,27.221 59.2222,-13.0391 z M 329.50817,832.49181 c 19.73343,-19.12641 35.87897,-43.60705 35.87897,-54.40154 0,-36.91406 -29.16138,-19.66514 -58.79155,34.77527 -34.26219,62.95095 -27.63978,68.62355 22.91258,19.62627 z m 753.13533,-15.58469 c 26.3837,-33.54135 29.2567,-58.44312 6.7425,-58.44312 -13.9583,0 -71.1805,81.98319 -71.1805,101.98153 0,13.72956 41.3876,-14.23446 64.438,-43.53841 z M -56.704298,1040.0515 c -24.749601,-9.1555 -28.634324,-27.2147 -17.6589,-82.0919 5.757663,-28.78826 9.779307,-31.3096 43.636066,-27.35694 67.136693,7.83779 145.867252,-73.42183 145.867252,-150.55302 0,-50.64807 -16.282777,-72.09534 -70.436155,-92.7767 -110.583153,-42.23208 -254.115195,28.30641 -223.177075,109.67986 14.39816,37.87006 6.99295,59.43394 -20.41006,59.43394 -24.95643,0 -34.14646,-20.18527 -34.14646,-75.00033 0,-77.73806 93.82133,-136.03153 217.788555,-135.31725 123.444455,0.71121 184.782725,51.26857 184.782725,152.30498 0,135.33537 -132.140839,276.48896 -226.245948,241.67736 z M 1910.3905,891.44864 c 0,-4.6527 8.2814,-20.28288 18.4032,-34.73374 10.1219,-14.45096 17.3293,-42.22359 16.0164,-61.71712 -3.0029,-44.58816 30.1059,-68.37667 57.3074,-41.17521 20.6745,20.67454 20.6078,18.64831 2.0741,63.00583 -19.73,47.22017 -93.8011,106.14497 -93.8011,74.62024 z m -1327.28,-94.76229 c -20.89545,-25.1774 -4.45128,-69.36085 28.93322,-77.73984 57.68656,-14.47845 92.14768,43.74145 45.30979,76.54806 -31.00818,21.71896 -56.86255,22.13396 -74.24301,1.19178 z m 948.3181,6.67182 c -8.1968,-5.19638 -12.9144,-22.72827 -10.8803,-40.43432 6.7157,-58.45579 96.2631,-64.53577 104.8533,-7.11926 5.7174,38.21523 -57.9122,70.41398 -93.973,47.55358 z"
     id="path3435"
     inkscape:connector-curvature="0"
     sodipodi:nodetypes="sssssssssssssscsssssssssssssssssssssssssssssssssssssssscsssssssssssssssssssssssssssssssssssssssssssssssssssssssssssssssss" />
</svg>
